# xmcd
#
# Track frame offsets: 
#        150
#        9561
#        21053
#        31733
#        46103
#        55936
#        67612
#        79578
#        90671
#        101246
#        112465
#        124537
#        135522
#        145466
#        156705
#        170072
#        182580
#        193569
#        202868
#        214111
#        226161
#        237558
#        250698
#        260329
#        272416
#
# Disc length: 3784 seconds
#
# Revision: 2
# Processed by: cddbd v1.5.2PL0 Copyright (c) Steve Scherf et al.
# Submitted via: ExactAudioCopyFreeDBPlugin 1.0
#
DISCID=550ec619
DTITLE=Various Artist - Mod:  The Early Years [Real Gone Music]
DYEAR=2015
DGENRE=Rhythm and Blues
TTITLE0=Gladys Knight and The Pips - Every Beat of My Heart
TTITLE1=Bill Doggett - Choo Choo
TTITLE2=Gino Parks - Same Thing
TTITLE3=Jack McDuff - Screamin'
TTITLE4=Chris Farlowe - Air Travel
TTITLE5=J.J. Jackson and The Jackaels - Oo-Ma-Liddi
TTITLE6=Delores Johnson - What Kind of Man Are You
TTITLE7=Mark Murphy - Why Don't You Do Right
TTITLE8=Prince La La - She Put the Hurt on Me
TTITLE9=Tommy Hunt - The Work Song
TTITLE10=Chuck Jackson - I Keep Forgetting
TTITLE11=Little Eva - The Locomotion
TTITLE12=Major Lance - Delilah
TTITLE13=The Exciters - Tell Him
TTITLE14=Smokey Robinson and The Miracles - You Really Got a Hold on Me
TTITLE15=The Valentines - That's it Man
TTITLE16=Theola Kilgore - Chain Gang (The Sound of My Man)
TTITLE17=Willie Mitchell - The Crawl
TTITLE18=John Lee Hooker - Boom Boom
TTITLE19=Jr. Walker and The All Stars - Cleo's Mood
TTITLE20=Dee Dee Sharp - Mashed Potato Time
TTITLE21=Richard Berry and The Pharoahs - Have Love Will Travel
TTITLE22=Richie Barrett - Tricky Dicky
TTITLE23=Sam Cooke - Twisting the Night Away
TTITLE24=Joe Loss and His Orchestra - Maigret Theme
EXTD=compilation
EXTT0=compilation
EXTT1=
EXTT2=
EXTT3=
EXTT4=
EXTT5=
EXTT6=
EXTT7=
EXTT8=
EXTT9=
EXTT10=
EXTT11=
EXTT12=
EXTT13=
EXTT14=
EXTT15=
EXTT16=
EXTT17=
EXTT18=
EXTT19=
EXTT20=
EXTT21=
EXTT22=
EXTT23=
EXTT24=
PLAYORDER=
